<?xml version="1.0" standalone="no"?><svg xmlns="http://www.w3.org/2000/svg" viewBox="0 0 1440 320"><path fill="#f4f4f5" fill-opacity="1" d="M0,160L17.1,154.7C34.3,149,69,139,103,144C137.1,149,171,171,206,176C240,181,274,171,309,138.7C342.9,107,377,53,411,37.3C445.7,21,480,43,514,69.3C548.6,96,583,128,617,160C651.4,192,686,224,720,213.3C754.3,203,789,149,823,106.7C857.1,64,891,32,926,37.3C960,43,994,85,1029,106.7C1062.9,128,1097,128,1131,112C1165.7,96,1200,64,1234,74.7C1268.6,85,1303,139,1337,160C1371.4,181,1406,171,1423,165.3L1440,160L1440,0L1422.9,0C1405.7,0,1371,0,1337,0C1302.9,0,1269,0,1234,0C1200,0,1166,0,1131,0C1097.1,0,1063,0,1029,0C994.3,0,960,0,926,0C891.4,0,857,0,823,0C788.6,0,754,0,720,0C685.7,0,651,0,617,0C582.9,0,549,0,514,0C480,0,446,0,411,0C377.1,0,343,0,309,0C274.3,0,240,0,206,0C171.4,0,137,0,103,0C68.6,0,34,0,17,0L0,0Z"></path></svg>